<?xml version="1.0" encoding="utf-8"?>
<!-- Generator: Adobe Illustrator 24.3.0, SVG Export Plug-In . SVG Version: 6.00 Build 0)  -->
<svg version="1.1" id="Layer_1" xmlns="http://www.w3.org/2000/svg" xmlns:xlink="http://www.w3.org/1999/xlink" x="0px" y="0px"
	 viewBox="0 0 691.7 462.8" style="enable-background:new 0 0 691.7 462.8;" xml:space="preserve">
<style type="text/css">
	.st0{fill:#13151A;}
	.st1{clip-path:url(#SVGID_2_);fill:#13151A;}
	.st2{fill:#F7921E;}
	.st3{clip-path:url(#SVGID_4_);fill:#00919D;}
	.st4{clip-path:url(#SVGID_4_);fill:#13151A;}
	.st5{clip-path:url(#SVGID_4_);fill:#FFFFFF;}
</style>
<g>
	<g>
		<polygon class="st0" points="29.5,276.1 136.4,276.1 136.4,257.2 52.6,257.2 52.6,221.2 123.4,221.2 123.4,203 52.6,203 
			52.6,139.1 133.2,139.1 133.2,119.9 29.5,119.9 		"/>
		<polygon class="st0" points="380.4,276.1 479.8,276.1 479.8,256.9 403.5,256.9 403.5,119.9 380.4,119.9 		"/>
		<g>
			<defs>
				<rect id="SVGID_1_" x="-481" y="-309.1" width="1462" height="1129.7"/>
			</defs>
			<clipPath id="SVGID_2_">
				<use xlink:href="#SVGID_1_"  style="overflow:visible;"/>
			</clipPath>
			<path class="st1" d="M517.5,276.1h22.4l9.7-23.2h78l9.7,23.2h24l-69-156.6h-6.2L517.5,276.1z M557.1,236.1l24-56.4
				c3.9-9.6,7.8-24.2,7.8-24.2s3.9,14.6,8.1,24.2l23.4,56.4H557.1z"/>
			<path class="st1" d="M441.9,387.9c-4.2,5.3-11.3,14.4-25.7,14.4c-16.9,0-17.4-13.3-17.6-18.3c-0.2-3.6,0-7,0-10.5H447
				c-1.2-6-2.4-11.8-9.1-17.5c-6.4-5.4-15.7-8.2-25.2-8.2c-22,0-37.3,12.6-37.3,29.2c0,16.1,14.7,29.5,38.7,29.5
				c20.4,0,28.2-11,32.1-16.9L441.9,387.9z M424.7,369.5H399l0.2-7.2c0.7-5.3,1.7-11.7,13.5-11.7c11,0,11.5,6.5,12,11.2V369.5z"/>
			<path class="st1" d="M495.3,385.1l-17.6-32.4h8.8v-3.5h-41.4v3.5h8.6l30.9,53l-12.2,23.7c-1.2,2.1-2.4,4-4.1,4
				c-0.7,0-1.5-0.5-2-1.1c-0.7-0.7-1-1.5-1.5-2.1c-1.4-1.6-3.9-3.2-7.8-3.2c-6.4,0-9.5,4.4-9.5,7.8c0,4.8,5.2,8.4,11.7,8.4
				c10.6,0,15.4-8,19.9-16.9l35-67.4c2.4-4.9,4.4-6.1,10.6-6.2h4.7v-3.5h-30.4v3.5h5.2c1.4,0,5.9-0.1,5.9,2.3c0,1.2-2.4,5.7-3,7
				L495.3,385.1z"/>
			<path class="st1" d="M592.4,387.9c-4.2,5.3-11.3,14.4-25.7,14.4c-16.9,0-17.4-13.3-17.6-18.3c-0.2-3.6,0-7,0-10.5h48.3
				c-1.2-6-2.4-11.8-9.1-17.5c-6.4-5.4-15.7-8.2-25.2-8.2c-22,0-37.3,12.6-37.3,29.2c0,16.1,14.7,29.5,38.7,29.5
				c20.4,0,28.2-11,32.1-16.9L592.4,387.9z M575.1,369.5h-25.7l0.2-7.2c0.7-5.3,1.7-11.7,13.5-11.7c11,0,11.5,6.5,12,11.2V369.5z
				 M656.6,346.9h-4.7c-0.3,2.9-0.5,4.3-3.5,4.3c-1.4,0-2.2-0.3-3.9-1.1c-2.9-1.2-7.4-2.5-13.4-2.5c-15.9,0-22.6,9.2-22.6,17.9
				c0,13,12,16.1,22.8,18.9c6.9,1.6,19.1,2.8,19.1,9.8c0,4.3-5.6,8.5-14.4,8.5c-5.6,0-11.5-1.7-15.7-4.9c-5.7-4.1-6.8-9-7.8-13.3
				h-4.9v20.2h4.9c-0.2-0.9-0.3-3.6,2.7-3.6c1.2,0,2.7,0.8,5.4,2c1,0.5,7.1,3.2,14.9,3.2c18.4,0,26-11.3,26-20.1
				c0-12.2-13-15.2-21.1-17l-5.1-1.1c-4.7-0.9-10.3-2.5-11.8-3.6c-2-1.3-3.2-3.5-3.2-5.4c0-4.1,4.9-7.8,12-7.8
				c4.2,0,9.1,1.2,12.5,3.2c4.9,2.9,5.9,6,7.1,9.4h4.7V346.9z"/>
		</g>
		<g>
			<path class="st2" d="M661.1,309.7H367.8v-10.3h293.4V309.7z M141.8,309.7H29.5v-10.3h112.3V309.7z"/>
		</g>
		<g>
			<defs>
				<rect id="SVGID_3_" x="-481" y="-309.1" width="1462" height="1129.7"/>
			</defs>
			<clipPath id="SVGID_4_">
				<use xlink:href="#SVGID_3_"  style="overflow:visible;"/>
			</clipPath>
			<path class="st3" d="M172,194.7c0-45.1,36.6-81.7,81.7-81.7s81.7,36.6,81.7,81.7c0,45.1-36.6,81.7-81.7,81.7S172,239.8,172,194.7
				"/>
			<path class="st4" d="M253.8,240.6c-25.4,0-46-20.6-46-46c0-25.4,20.6-46,46-46c25.4,0,46,20.6,46,46
				C299.7,220,279.1,240.6,253.8,240.6"/>
			<path class="st5" d="M253.8,169.2c0-9,7.3-16.3,16.3-16.3c9,0,16.3,7.3,16.3,16.3c0,9-7.3,16.3-16.3,16.3
				C261,185.5,253.8,178.2,253.8,169.2"/>
			<path class="st4" d="M307.5,298.8l17.6,53l14.3-4.8l-17.3-52C317.4,296.5,312.5,297.8,307.5,298.8"/>
			<path class="st4" d="M254.1,303.7c-2.7,0-5.3,0-7.9-0.1v56h15.1v-56C258.9,303.7,256.5,303.7,254.1,303.7"/>
			<path class="st4" d="M184.2,295.4L167,347.1l14.3,4.8l17.5-52.8C193.9,298,189,296.8,184.2,295.4"/>
			<path class="st4" d="M336.7,99.1L361,49l-13.6-6.6l-24.8,51.2C327.4,95.3,332.1,97.1,336.7,99.1"/>
			<path class="st4" d="M290.3,85.6l9.3-54.4l-14.9-2.5l-9.4,55C280.4,84.1,285.4,84.8,290.3,85.6"/>
			<path class="st4" d="M233.9,83.6l-9.4-54.9l-14.9,2.5l9.2,54.3C223.8,84.7,228.8,84,233.9,83.6"/>
			<path class="st4" d="M186.6,93.3l-24.7-50.9L148.3,49l24.1,49.7C177,96.8,181.7,95,186.6,93.3"/>
		</g>
	</g>
</g>
<g>
</g>
<g>
</g>
<g>
</g>
<g>
</g>
<g>
</g>
<g>
</g>
</svg>
